<svg width="141" height="95" viewBox="0 0 141 95" fill="none" xmlns="http://www.w3.org/2000/svg">
<path d="M10.7687 65.5557V83.0319L5.93199 65.5557H0V94.728H4.25313V73.6142L10.1212 94.728H14.9819V65.5557H10.7687Z" fill="#E9252F"/>
<path d="M21.9133 65.2842L17.1165 94.4645H21.4496L22.265 89.1721H28.0452L28.8606 94.4645H33.6174L28.8206 65.2842H21.9133ZM25.1431 70.4487L27.4296 85.1988H22.8646L25.1431 70.4487Z" fill="#E9252F"/>
<path d="M49.2389 65.8276L46.009 86.5417L42.5314 65.8276H35.9758V95H40.101V74.3739L43.6187 95H48.0796L51.3335 74.0861V95H55.7944V65.8276H49.2389Z" fill="#E9252F"/>
<path d="M65.9797 78.2593H72.5992V87.5171C72.5992 92.4018 70.2488 94.8401 65.5559 94.8401C60.8631 94.8401 58.5127 92.4018 58.5127 87.5171V72.3353C58.5127 67.4506 60.8631 65.0122 65.5559 65.0122C70.2488 65.0122 72.5992 67.4506 72.5992 72.3353V75.1814H68.1382V72.0475C68.1382 70.1368 67.3227 69.1774 65.6839 69.1774C64.053 69.1774 63.2295 70.1368 63.2295 72.0475V87.7969C63.2295 89.6916 64.045 90.6429 65.6839 90.6429C67.3148 90.6429 68.1382 89.6916 68.1382 87.7969V82.4245H65.9797V78.2593Z" fill="#5A5A5E"/>
<path d="M85.4865 94.5122C85.3346 94.0485 85.2307 93.6568 85.1747 93.337C85.1027 92.8093 85.0708 92.0099 85.0708 90.9386V86.3577C85.0708 83.8714 84.0394 82.6322 81.9688 82.6322H80.3379V94.5122H75.6211V65.3398H82.7443C87.4052 65.3398 89.7396 67.5783 89.7396 72.0553V74.3498C89.7396 77.3478 88.7083 79.3224 86.6377 80.2738C88.7323 81.1132 89.7796 83.1838 89.7796 86.4776V90.9706C89.7796 92.5455 89.9475 93.7207 90.2833 94.5122H85.4865ZM80.3299 69.513V78.483H82.1767C84.0794 78.483 85.0228 77.4517 85.0228 75.3891V72.519C85.0228 70.5124 84.2233 69.505 82.6164 69.505H80.3299V69.513Z" fill="#5A5A5E"/>
<path d="M92.4819 72.3353C92.4819 67.4506 94.8723 65.0122 99.6451 65.0122C104.418 65.0122 106.808 67.4506 106.808 72.3353V87.5091C106.808 92.3938 104.418 94.8321 99.6451 94.8321C94.8723 94.8321 92.4819 92.3938 92.4819 87.5091V72.3353ZM97.1907 87.8049C97.1907 89.7316 98.0062 90.6909 99.6451 90.6909C101.276 90.6909 102.099 89.7316 102.099 87.8049V72.0555C102.099 70.1447 101.284 69.1854 99.6451 69.1854C98.0142 69.1854 97.1907 70.1447 97.1907 72.0555V87.8049Z" fill="#5A5A5E"/>
<path d="M114.355 65.3398V87.8447C114.355 89.7394 115.17 90.6908 116.809 90.6908C118.44 90.6908 119.264 89.7394 119.264 87.8447V65.3398H123.725V87.5569C123.725 92.4416 121.374 94.8799 116.681 94.8799C111.988 94.8799 109.646 92.4416 109.646 87.5569V65.3398H114.355Z" fill="#5A5A5E"/>
<path d="M133.878 65.3398C138.57 65.3398 140.921 67.7462 140.921 72.567V76.3484C140.921 81.1532 138.57 83.5516 133.878 83.5516H131.639V94.5202H126.922V65.3398H133.878ZM131.639 69.513V79.4024H133.878C135.413 79.4024 136.18 78.483 136.18 76.6362V72.2632C136.18 70.4324 135.413 69.513 133.878 69.513H131.639Z" fill="#5A5A5E"/>
<path d="M95.9279 50.1102L95.9119 39.2296C95.9119 36.3035 94.4489 33.5694 92.0025 31.9065L44.9941 0L45.0101 10.8807C45.0101 13.8067 46.4731 16.5409 48.9195 18.2037L95.9279 50.1102Z" fill="#E9252F"/>
<path d="M66.7952 50.1104L48.9033 37.9666C46.4569 36.3037 44.9939 33.5615 44.9939 30.6355V19.7788L62.8699 31.9146C65.3162 33.5775 66.7792 36.3117 66.7792 39.2377L66.7952 50.1104Z" fill="#E9252F"/>
<path d="M95.9273 19.4749V30.3316L78.0513 18.2037C75.605 16.5409 74.142 13.8067 74.142 10.8807L74.126 0.00799462V0L74.142 0.00799462L92.0179 12.1438C94.4643 13.8067 95.9273 16.5489 95.9273 19.4749Z" fill="#E9252F"/>
</svg>
