<svg width="88" height="56" viewBox="0 0 88 56" fill="none" xmlns="http://www.w3.org/2000/svg">
<path d="M47.969 0.101946V3.27282C47.969 4.30634 47.553 5.29768 46.8103 6.02712L43.9217 8.8693L41.0991 6.09039C40.3564 5.36095 39.9404 4.36962 39.9404 3.3361V0L43.9788 3.97589L47.969 0.101946Z" fill="white"/>
<path d="M26.5225 13.2424H29.745C30.7948 13.2424 31.8017 13.652 32.5444 14.3832L35.4312 17.2254L32.6086 20.0043C31.8659 20.7337 30.859 21.145 29.8093 21.145H26.4189L30.4591 17.1691L26.5225 13.2424Z" fill="white"/>
<path d="M39.8174 34.3084V31.1375C39.8174 30.104 40.2334 29.1126 40.9761 28.3832L43.8647 25.541L46.6873 28.3199C47.43 29.0494 47.8459 30.0407 47.8459 31.0742V34.4086L43.8076 30.4327L39.8174 34.3084Z" fill="white"/>
<path d="M61.2642 21.145H58.0417C56.9919 21.145 55.985 20.7354 55.2423 20.0042L52.3555 17.1638L55.1781 14.3849C55.9207 13.6554 56.9277 13.2441 57.9774 13.2441H61.3677L57.3276 17.22L61.2642 21.145Z" fill="white"/>
<path d="M53.0387 32.0691V29.4941C53.0387 28.1688 52.5049 26.8997 51.5515 25.9629L44.8477 19.3645V22.0731C44.8477 23.416 45.3975 24.7009 46.3723 25.6412L53.0387 32.0691Z" fill="white"/>
<path d="M58.9331 26.1228H56.3158C54.9697 26.1228 53.6789 25.5972 52.7273 24.6604L46.0234 18.062H48.7764C50.1404 18.062 51.4472 18.6016 52.4024 19.5613L58.9331 26.1228Z" fill="white"/>
<path d="M58.9331 8.24707H56.3158C54.9697 8.24707 53.6789 8.77262 52.7273 9.70947L46.0234 16.3078H48.7764C50.1404 16.3078 51.4472 15.7682 52.4024 14.8085L58.9331 8.24707Z" fill="white"/>
<path d="M53.0387 2.36597V4.94274C53.0387 6.26804 52.5049 7.53709 51.5515 8.47394L44.8477 15.0723V12.3619C44.8477 11.0191 45.3975 9.7342 46.3723 8.79384L53.0387 2.36597Z" fill="white"/>
<path d="M34.8721 32.0444V29.4694C34.8721 28.1441 35.4059 26.8751 36.3592 25.9382L43.0631 19.3398V22.0484C43.0631 23.3913 42.5132 24.6779 41.5384 25.6166L34.8721 32.0444Z" fill="white"/>
<path d="M28.9756 26.1001H31.5929C32.939 26.1001 34.2298 25.5745 35.1813 24.6377L41.8852 18.0393H39.134C37.77 18.0393 36.4632 18.5807 35.5081 19.5386L28.9756 26.1001Z" fill="white"/>
<path d="M28.9756 8.22412H31.5929C32.939 8.22412 34.2298 8.74967 35.1813 9.68652L41.8852 16.2849H39.134C37.77 16.2849 36.4632 15.7453 35.5081 14.7856L28.9756 8.22412Z" fill="white"/>
<path d="M34.8721 2.34302V4.91979C34.8721 6.24509 35.4059 7.51414 36.3592 8.45099L43.0631 15.0494V12.3372C43.0631 10.9944 42.5132 9.70774 41.5384 8.76913L34.8721 2.34302Z" fill="white"/>
<path d="M0 39.3088H4.60611V40.1859H2.7476V46.1251H1.81924V40.1859H0V39.3088Z" fill="white"/>
<path d="M11.5584 39.3088V46.1251H10.63V43.1371H7.00942V46.1251H6.08105V39.3088H7.00942V42.26H10.6283V39.3088H11.5584Z" fill="white"/>
<path d="M12.8594 46.1252L15.8766 39.0259H15.9337L18.9598 46.1252H17.8975L15.6373 40.4602L16.2979 40.0366L13.7788 46.1269H12.8594V46.1252ZM14.6304 43.5431H17.2066L17.5137 44.3359H14.3626L14.6304 43.5431Z" fill="white"/>
<path d="M26.257 46.3432L20.9046 40.9981L21.1724 41.0649L21.192 46.127H20.2637V39.1033H20.3119L25.5982 44.4677L25.3875 44.4203L25.3679 39.3107H26.2963V46.3432H26.257Z" fill="white"/>
<path d="M33.7529 39.3088V46.1251H32.8245V43.1371H29.2057V46.1251H28.2773V39.3088H29.2057V42.26H32.8245V39.3088H33.7529Z" fill="white"/>
<path d="M38.7713 39.3088H39.6997V45.2481H43.2132V46.1251H38.7695V39.3088H38.7713Z" fill="white"/>
<path d="M44.1719 42.7224C44.1719 42.2514 44.2629 41.8049 44.445 41.3831C44.6271 40.9612 44.8806 40.5903 45.2056 40.2652C45.5305 39.94 45.9054 39.6886 46.3303 39.5058C46.7552 39.323 47.2123 39.2334 47.705 39.2334C48.1835 39.2334 48.637 39.3248 49.0654 39.5058C49.4921 39.6886 49.8706 39.9417 50.2009 40.2652C50.5294 40.5886 50.7865 40.9612 50.9722 41.3831C51.1578 41.8049 51.2507 42.2531 51.2507 42.7312C51.2507 43.2093 51.1578 43.6575 50.9722 44.0794C50.7865 44.5012 50.5312 44.8703 50.2063 45.1867C49.8813 45.5048 49.5046 45.7527 49.0761 45.932C48.6477 46.1112 48.1924 46.2009 47.7068 46.2009C47.2158 46.2009 46.757 46.113 46.3321 45.9372C45.9072 45.7615 45.5323 45.5136 45.2074 45.1972C44.8824 44.8809 44.6271 44.5117 44.4468 44.0934C44.2629 43.6768 44.1719 43.2181 44.1719 42.7224ZM45.1288 42.7224C45.1288 43.0863 45.1949 43.4255 45.3252 43.7366C45.4555 44.0477 45.6412 44.3219 45.8804 44.561C46.1197 44.8 46.3946 44.9863 46.7035 45.1217C47.0123 45.257 47.3497 45.3238 47.7139 45.3238C48.0782 45.3238 48.4138 45.257 48.7244 45.1217C49.0333 44.9863 49.3047 44.8018 49.5385 44.5645C49.7724 44.3272 49.9545 44.0547 50.0884 43.7401C50.2223 43.4255 50.2902 43.0898 50.2902 42.7312C50.2902 42.3674 50.2223 42.0281 50.0884 41.7135C49.9545 41.3989 49.7706 41.1212 49.5385 40.8786C49.3047 40.636 49.0315 40.448 48.7155 40.3126C48.3995 40.1773 48.0621 40.1105 47.705 40.1105C47.3408 40.1105 47.0016 40.179 46.6856 40.3179C46.3696 40.4568 46.0947 40.6448 45.8626 40.8839C45.6287 41.1229 45.4484 41.4006 45.3216 41.7188C45.1931 42.0352 45.1288 42.3709 45.1288 42.7224Z" fill="white"/>
<path d="M58.8029 46.3432L53.4505 40.9981L53.7183 41.0649L53.7379 46.127H52.8096V39.1033H52.8578L58.1441 44.4677L57.9334 44.4203L57.9138 39.3107H58.8421V46.3432H58.8029Z" fill="white"/>
<path d="M66.244 45.5417C66.1476 45.6225 66.0137 45.7034 65.8423 45.7825C65.6709 45.8616 65.4799 45.9319 65.2728 45.9951C65.0657 46.0584 64.8533 46.1076 64.6355 46.1463C64.4177 46.1832 64.2106 46.2025 64.0124 46.2025C63.4572 46.2025 62.9555 46.1182 62.5092 45.9477C62.0628 45.7789 61.6808 45.5417 61.3648 45.2411C61.0488 44.9388 60.8078 44.5837 60.6417 44.1759C60.4757 43.7681 60.3936 43.327 60.3936 42.8559C60.3936 42.2776 60.4882 41.7661 60.6756 41.3197C60.8631 40.8732 61.1202 40.4953 61.4469 40.1842C61.7718 39.8731 62.1503 39.6376 62.5824 39.4776C63.0126 39.3177 63.4643 39.2368 63.9374 39.2368C64.3462 39.2368 64.7229 39.2825 65.0675 39.3739C65.4121 39.4653 65.7156 39.5866 65.9762 39.7378L65.6692 40.5762C65.5353 40.5076 65.3746 40.4391 65.1853 40.374C64.9979 40.3073 64.8033 40.2545 64.6051 40.2141C64.4069 40.1737 64.2248 40.1526 64.0588 40.1526C63.6428 40.1526 63.2715 40.2141 62.943 40.3371C62.6145 40.4602 62.3306 40.6359 62.0914 40.8644C61.8522 41.0947 61.6683 41.3707 61.5415 41.6941C61.413 42.0175 61.3505 42.3813 61.3505 42.7838C61.3505 43.1477 61.4148 43.4869 61.5415 43.798C61.6683 44.1091 61.8522 44.3763 62.0914 44.5995C62.3306 44.8228 62.6127 44.9933 62.9394 45.1128C63.2643 45.2323 63.6285 45.2921 64.0302 45.2921C64.2605 45.2921 64.4891 45.271 64.7194 45.2253C64.9497 45.1813 65.1443 45.1128 65.3032 45.0179V43.6785H63.9338V42.7926H66.2422V45.5417H66.244Z" fill="white"/>
<path d="M72.8208 39.3089C73.5171 39.3089 74.0634 39.4495 74.4633 39.729C74.8614 40.0084 75.0614 40.4408 75.0614 41.0261C75.0614 41.39 74.9793 41.7046 74.8132 41.9683C74.6472 42.2319 74.4151 42.4393 74.1187 42.5905C73.8224 42.7417 73.4724 42.8295 73.0708 42.8541L72.9369 42.3725C73.4028 42.3848 73.8206 42.4675 74.1919 42.6169C74.5633 42.7663 74.8561 42.9789 75.0721 43.2479C75.2881 43.5168 75.397 43.8385 75.397 44.2093C75.397 44.5486 75.3345 44.8386 75.2096 45.0811C75.0846 45.3237 74.9132 45.5206 74.6918 45.6752C74.4722 45.8299 74.2258 45.9424 73.9545 46.0145C73.6831 46.0865 73.3975 46.1234 73.0975 46.1234H71.0391V39.3071H72.8208V39.3089ZM73.0136 42.2882C73.3975 42.2882 73.6742 42.1845 73.8474 41.9771C74.0205 41.7697 74.1062 41.5183 74.1062 41.223C74.1062 40.8592 73.9938 40.5938 73.7706 40.432C73.5474 40.2686 73.2475 40.1877 72.8708 40.1877H71.971V42.2899H73.0136V42.2882ZM73.0511 45.2762C73.3136 45.2762 73.5492 45.2393 73.7599 45.1638C73.9705 45.0882 74.1384 44.9704 74.2633 44.8105C74.3883 44.6505 74.4508 44.4536 74.4508 44.2216C74.4508 43.958 74.3794 43.7506 74.2348 43.5994C74.092 43.4482 73.9081 43.3393 73.6849 43.2742C73.4617 43.2074 73.2314 43.1758 72.9958 43.1758H71.971V45.278H73.0511V45.2762Z" fill="white"/>
<path d="M76.1152 46.1252L79.1306 39.0259H79.1878L82.2139 46.1252H81.1516L78.8914 40.4602L79.552 40.0366L77.0329 46.1269H76.1152V46.1252ZM77.8881 43.5431H80.4643L80.7713 44.3359H77.6203L77.8881 43.5431Z" fill="white"/>
<path d="M84.4854 43.8542L81.9199 39.3105H83.059L85.1174 43.072L84.83 43.0913L86.8688 39.3105H87.9989L85.4138 43.8542V46.1269H84.4854V43.8542Z" fill="white"/>
<path d="M20.7622 53.081L20.7515 53.262L20.8122 53.1724L22.3226 51.6204H22.96L21.4335 53.1777L23.0457 55.2518H22.4172L21.0693 53.4888L20.7587 53.7858V55.2535H20.2588V51.6221H20.7587V53.081H20.7622Z" fill="white"/>
<path d="M24.5385 55.3022C24.2975 55.3022 24.0904 55.2547 23.9154 55.1581C23.7423 55.0632 23.6084 54.9313 23.512 54.7661C23.4173 54.6009 23.3691 54.4093 23.3691 54.1966C23.3691 53.9927 23.4227 53.8064 23.5298 53.6394C23.6369 53.4725 23.7798 53.3371 23.9565 53.2369C24.1333 53.1367 24.3314 53.0858 24.5492 53.0858C24.8277 53.0858 25.0598 53.1666 25.2437 53.3266C25.4276 53.4883 25.5526 53.708 25.6222 53.9892L23.8762 54.5921L23.7637 54.3161L25.1866 53.7994L25.0902 53.8697C25.0491 53.759 24.9813 53.664 24.8867 53.5832C24.792 53.5023 24.6671 53.4619 24.5135 53.4619C24.385 53.4619 24.2689 53.4918 24.169 53.5515C24.069 53.6113 23.9904 53.6939 23.9315 53.8011C23.8744 53.9066 23.844 54.0296 23.844 54.1703C23.844 54.3109 23.8744 54.4357 23.9333 54.5464C23.9922 54.6571 24.0761 54.7433 24.1832 54.8048C24.2904 54.8663 24.4118 54.8979 24.5475 54.8979C24.6385 54.8979 24.7278 54.8821 24.8152 54.8487C24.9027 54.8153 24.9849 54.7714 25.0634 54.7186L25.2776 55.0649C25.1723 55.1352 25.0545 55.1915 24.9224 55.2354C24.7938 55.2811 24.6653 55.3022 24.5385 55.3022ZM24.9224 52.7448L24.4475 52.2579L24.5849 52.2227L24.0993 52.7448H23.6601L24.5028 51.8853H24.5082L25.3598 52.7448H24.9224Z" fill="white"/>
<path d="M30.8299 54.94C30.7781 54.9839 30.7067 55.0261 30.6156 55.0683C30.5246 55.1105 30.4228 55.1474 30.3121 55.1808C30.2015 55.2142 30.089 55.2406 29.9729 55.2617C29.8569 55.281 29.7462 55.2915 29.6409 55.2915C29.3445 55.2915 29.0785 55.2458 28.8393 55.1562C28.6018 55.0665 28.3983 54.94 28.2287 54.78C28.0609 54.6201 27.9323 54.4303 27.843 54.2123C27.7538 53.9944 27.7109 53.7606 27.7109 53.5092C27.7109 53.2016 27.7609 52.9292 27.8609 52.6902C27.9609 52.4529 28.0984 52.2507 28.2715 52.0855C28.4447 51.9203 28.6464 51.7937 28.8767 51.7094C29.1071 51.6232 29.3463 51.5811 29.598 51.5811C29.8158 51.5811 30.0158 51.6057 30.1997 51.6531C30.3836 51.7023 30.5442 51.7656 30.6853 51.8465L30.5228 52.2929C30.4514 52.256 30.3657 52.2209 30.2657 52.1857C30.1657 52.1505 30.0622 52.1224 29.9569 52.0996C29.8515 52.0785 29.7551 52.0662 29.6659 52.0662C29.4445 52.0662 29.2463 52.0996 29.0713 52.1646C28.8964 52.2296 28.7446 52.3246 28.6179 52.4458C28.4911 52.5689 28.3929 52.7148 28.3251 52.887C28.2572 53.0593 28.2233 53.2526 28.2233 53.4671C28.2233 53.6622 28.2572 53.8414 28.3251 54.0067C28.3929 54.1719 28.4911 54.3143 28.6179 54.4338C28.7446 54.5533 28.8964 54.6447 29.0696 54.708C29.2427 54.7713 29.4373 54.8029 29.6516 54.8029C29.7748 54.8029 29.8962 54.7906 30.0193 54.7677C30.1425 54.7449 30.2461 54.708 30.33 54.657V53.9434H29.5998V53.4706H30.8299V54.94Z" fill="white"/>
<path d="M32.5344 55.302C32.3362 55.302 32.1577 55.2598 31.9953 55.1772C31.8328 55.0929 31.7042 54.9698 31.6096 54.8081C31.515 54.6446 31.4668 54.4478 31.4668 54.2122C31.4668 53.9785 31.5168 53.7763 31.615 53.6094C31.7132 53.4424 31.8471 53.3123 32.0131 53.2227C32.1791 53.133 32.3612 53.0873 32.5594 53.0873C32.7558 53.0873 32.9236 53.1313 33.0611 53.2209C33.1986 53.3106 33.3021 53.4143 33.3699 53.5355L33.3396 53.6111L33.386 53.1735H33.8252V55.2528H33.3503V54.7097L33.4057 54.831C33.3878 54.8644 33.3557 54.9065 33.3092 54.9593C33.261 55.012 33.2021 55.0647 33.1289 55.1175C33.0557 55.1719 32.97 55.2159 32.8718 55.251C32.7719 55.2844 32.6594 55.302 32.5344 55.302ZM32.6612 54.9153C32.7808 54.9153 32.8879 54.8942 32.9825 54.8503C33.0772 54.8063 33.1575 54.7448 33.22 54.664C33.2825 54.5831 33.3271 54.49 33.3503 54.3827V53.975C33.3235 53.8748 33.2753 53.7869 33.2075 53.7113C33.1396 53.6357 33.0575 53.5777 32.9629 53.5355C32.8683 53.4934 32.7629 53.4723 32.6522 53.4723C32.5237 53.4723 32.4059 53.5021 32.3005 53.5619C32.1952 53.6217 32.1113 53.706 32.047 53.8133C31.9845 53.9205 31.9524 54.0453 31.9524 54.1894C31.9524 54.323 31.9845 54.446 32.0488 54.5568C32.1131 54.6675 32.2006 54.7536 32.3095 54.8187C32.4184 54.8837 32.5362 54.9153 32.6612 54.9153ZM32.0649 52.0767H32.5898L32.9629 52.7499H32.6612L32.0649 52.0767Z" fill="white"/>
<path d="M38.0618 54.3896C38.4444 54.3896 38.7545 54.0843 38.7545 53.7076C38.7545 53.331 38.4444 53.0256 38.0618 53.0256C37.6793 53.0256 37.3691 53.331 37.3691 53.7076C37.3691 54.0843 37.6793 54.3896 38.0618 54.3896Z" fill="white"/>
<path d="M43.4128 51.6196C43.7842 51.6196 44.0752 51.6935 44.2876 51.8429C44.5001 51.9923 44.6072 52.2225 44.6072 52.5336C44.6072 52.7287 44.5626 52.8957 44.4751 53.0363C44.3858 53.1769 44.2626 53.2877 44.1055 53.3685C43.9466 53.4494 43.761 53.4951 43.5467 53.5091L43.4753 53.2525C43.7235 53.2596 43.9467 53.3035 44.143 53.3826C44.3412 53.4634 44.4965 53.5759 44.6126 53.7201C44.7286 53.8642 44.7857 54.0347 44.7857 54.2333C44.7857 54.4144 44.7518 54.569 44.6858 54.6973C44.6197 54.8257 44.5269 54.9311 44.4108 55.0137C44.293 55.0963 44.1627 55.1561 44.0181 55.1948C43.8735 55.2334 43.7217 55.2528 43.561 55.2528H42.4648V51.6214H43.4128V51.6196ZM43.5146 53.2068C43.7181 53.2068 43.8663 53.1506 43.9591 53.0416C44.0502 52.9309 44.0966 52.7973 44.0966 52.6391C44.0966 52.4457 44.0377 52.3051 43.9181 52.2172C43.7985 52.1294 43.6396 52.0872 43.4378 52.0872H42.9576V53.2068H43.5146ZM43.536 54.7993C43.6753 54.7993 43.802 54.78 43.9127 54.7395C44.0252 54.6991 44.1145 54.6358 44.1805 54.5515C44.2466 54.4653 44.2805 54.3616 44.2805 54.2368C44.2805 54.0962 44.243 53.9855 44.1662 53.9046C44.0895 53.8238 43.9913 53.7658 43.8735 53.7306C43.7538 53.6955 43.6324 53.6779 43.5057 53.6779H42.9594V54.7975H43.536V54.7993Z" fill="white"/>
<path d="M45 52.1416H45.5249L45.898 52.8148H45.5963L45 52.1416ZM45.4945 53.1716H45.9748V55.251H45.4945V53.1716Z" fill="white"/>
<path d="M47.2247 53.1717L47.2604 53.6796L47.2443 53.5988C47.3086 53.4441 47.4175 53.3211 47.571 53.2297C47.7246 53.1383 47.9031 53.0908 48.1066 53.0908C48.3048 53.0908 48.4673 53.1488 48.594 53.2648C48.7208 53.3808 48.7868 53.5302 48.7904 53.7148V55.2528H48.3102V53.8765C48.3066 53.7658 48.2744 53.6744 48.2102 53.6023C48.1477 53.5302 48.0495 53.4951 47.9174 53.4951C47.7978 53.4951 47.6889 53.5285 47.5889 53.5953C47.4889 53.6621 47.4104 53.7535 47.3532 53.8712C47.2979 53.989 47.2693 54.1243 47.2693 54.279V55.2528H46.7891V53.1734H47.2247V53.1717Z" fill="white"/>
<path d="M49.6133 55.251V51.363H50.0828V53.6533L50.0721 53.5672C50.1435 53.4301 50.2524 53.3158 50.4006 53.2262C50.5488 53.1365 50.7237 53.0908 50.9291 53.0908C51.1272 53.0908 51.2897 53.1488 51.4164 53.2649C51.5432 53.3809 51.6093 53.5303 51.6128 53.7148V55.2528H51.1326V53.8765C51.129 53.7658 51.0969 53.6744 51.0326 53.6023C50.9701 53.5303 50.8719 53.4951 50.7398 53.4951C50.6202 53.4951 50.5113 53.5303 50.4113 53.5988C50.3113 53.6674 50.2328 53.7605 50.1757 53.8783C50.1203 53.9961 50.0917 54.1296 50.0917 54.2808V55.2546H49.6133V55.251Z" fill="white"/>
<path d="M53.8945 51.6196H56.3493V52.0872H55.3603V55.2528H54.8657V52.0872H53.8963V51.6196H53.8945Z" fill="white"/>
<path d="M57.0107 55.251V51.363H57.4803V53.6533L57.4696 53.5672C57.541 53.4301 57.6499 53.3158 57.7981 53.2262C57.9462 53.1365 58.1212 53.0908 58.3265 53.0908C58.5247 53.0908 58.6871 53.1488 58.8139 53.2649C58.9407 53.3809 59.0067 53.5303 59.0103 53.7148V55.2528H58.53V53.8765C58.5265 53.7658 58.4943 53.6744 58.4301 53.6023C58.3676 53.5303 58.2694 53.4951 58.1373 53.4951C58.0177 53.4951 57.9088 53.5303 57.8088 53.5988C57.7088 53.6674 57.6302 53.7605 57.5731 53.8783C57.5178 53.9961 57.4892 54.1296 57.4892 54.2808V55.2546H57.0107V55.251Z" fill="white"/>
<path d="M60.5124 55.3319C60.3142 55.3319 60.1536 55.2739 60.0304 55.1579C59.9054 55.0419 59.8411 54.8925 59.834 54.708V53.17H60.3142V54.541C60.3214 54.6517 60.3553 54.7431 60.416 54.8152C60.4767 54.8872 60.5731 54.9259 60.7016 54.9277C60.8177 54.9277 60.9212 54.8925 61.0159 54.824C61.1087 54.7554 61.1855 54.6623 61.2426 54.5427C61.2997 54.4232 61.3301 54.2896 61.3301 54.1385V53.1682H61.805V55.2476H61.3711L61.3301 54.7343L61.3604 54.8292C61.3158 54.9224 61.2533 55.0068 61.1712 55.0823C61.0891 55.1579 60.9927 55.2177 60.8784 55.2599C60.7623 55.3108 60.6409 55.3319 60.5124 55.3319Z" fill="white"/>
<path d="M63.5033 55.302C63.3052 55.302 63.1266 55.2598 62.966 55.1772C62.8035 55.0928 62.6767 54.9698 62.5803 54.8081C62.4857 54.6446 62.4375 54.4477 62.4375 54.2122C62.4375 53.9784 62.4875 53.7763 62.5857 53.6093C62.6839 53.4423 62.8178 53.3123 62.9838 53.2226C63.1498 53.133 63.3319 53.0873 63.5301 53.0873C63.7283 53.0873 63.8943 53.1312 64.0318 53.2209C64.1693 53.3105 64.2728 53.4142 64.3407 53.5355L64.3085 53.6093L64.3549 53.1716H64.7941V55.251H64.3192V54.7079L64.3764 54.8291C64.3585 54.8625 64.3264 54.9047 64.28 54.9575C64.2317 55.0102 64.1728 55.0629 64.0996 55.1157C64.0264 55.1701 63.9407 55.2141 63.8425 55.2492C63.7408 55.2844 63.6283 55.302 63.5033 55.302ZM64.1818 52.7445L63.7069 52.2576L63.8443 52.2225L63.3587 52.7445H62.9195L63.7622 51.885H63.7676L64.6192 52.7445H64.1818ZM63.6301 54.9153C63.7497 54.9153 63.8568 54.8942 63.9515 54.8502C64.0461 54.8063 64.1264 54.7448 64.1889 54.6639C64.2514 54.5831 64.296 54.4899 64.3192 54.3827V53.9749C64.2924 53.8747 64.2442 53.7868 64.1764 53.7113C64.1086 53.6357 64.0264 53.5777 63.9318 53.5355C63.8372 53.4933 63.7319 53.4722 63.6212 53.4722C63.4926 53.4722 63.3748 53.5021 63.2695 53.5619C63.1641 53.6216 63.0802 53.706 63.0177 53.8132C62.9552 53.9204 62.9231 54.0452 62.9231 54.1893C62.9231 54.3229 62.9552 54.446 63.0195 54.5567C63.0838 54.6674 63.1713 54.7536 63.2802 54.8186C63.3873 54.8836 63.5051 54.9153 63.6301 54.9153ZM63.4569 55.7695C63.4569 55.7098 63.4837 55.657 63.5355 55.6148C63.5872 55.5709 63.6444 55.5498 63.7069 55.5498C63.764 55.5498 63.8193 55.5709 63.8693 55.6148C63.9211 55.6588 63.9461 55.7098 63.9461 55.7695C63.9461 55.8363 63.9211 55.8926 63.8693 55.9347C63.8176 55.9787 63.764 55.9998 63.7069 55.9998C63.6462 55.9998 63.589 55.9787 63.5355 55.9347C63.4837 55.8908 63.4569 55.8363 63.4569 55.7695Z" fill="white"/>
<path d="M66.044 53.1717L66.0797 53.6796L66.0637 53.5988C66.1279 53.4441 66.2368 53.3211 66.3904 53.2297C66.5439 53.1383 66.7224 53.0908 66.926 53.0908C67.1241 53.0908 67.2866 53.1488 67.4134 53.2648C67.5401 53.3808 67.6062 53.5302 67.6097 53.7148V55.2528H67.1295V53.8765C67.1259 53.7658 67.0938 53.6744 67.0295 53.6023C66.967 53.5302 66.8688 53.4951 66.7367 53.4951C66.6171 53.4951 66.5082 53.5285 66.4082 53.5953C66.3082 53.6621 66.2297 53.7535 66.1726 53.8712C66.1172 53.989 66.0887 54.1243 66.0887 54.279V55.2528H65.6084V53.1734H66.044V53.1717Z" fill="white"/>
</svg>
