<svg width="205" height="172" viewBox="0 0 205 172" fill="none" xmlns="http://www.w3.org/2000/svg">
<path d="M22.5095 88.3281V111.875L15.9926 88.3281H8V127.634H13.7305V99.186L21.637 127.634H28.1862V88.3281H22.5095Z" fill="white"/>
<path d="M37.5252 87.9609L31.0622 127.278H36.9005L37.9992 120.147H45.7871L46.8858 127.278H53.295L46.832 87.9609H37.5252ZM41.877 94.9195L44.9577 114.793H38.8071L41.877 94.9195Z" fill="white"/>
<path d="M74.3428 88.6943L69.9911 116.604L65.3054 88.6943H56.4726V128H62.0308V100.209L66.7703 128H72.7809L77.165 99.8215V128H83.1756V88.6943H74.3428Z" fill="white"/>
<path d="M96.8989 105.444H105.818V117.918C105.818 124.5 102.651 127.785 96.328 127.785C90.005 127.785 86.8382 124.5 86.8382 117.918V97.4626C86.8382 90.8811 90.005 87.5957 96.328 87.5957C102.651 87.5957 105.818 90.8811 105.818 97.4626V101.297H99.8073V97.0748C99.8073 94.5004 98.7086 93.2078 96.5004 93.2078C94.3029 93.2078 93.1935 94.5004 93.1935 97.0748V118.295C93.1935 120.848 94.2922 122.13 96.5004 122.13C98.6978 122.13 99.8073 120.848 99.8073 118.295V111.056H96.8989V105.444Z" fill="white"/>
<path d="M123.182 127.342C122.977 126.717 122.837 126.189 122.762 125.759C122.665 125.048 122.622 123.971 122.622 122.527V116.355C122.622 113.005 121.232 111.335 118.442 111.335H116.245V127.342H109.889V88.0361H119.487C125.767 88.0361 128.912 91.0522 128.912 97.0844V100.176C128.912 104.215 127.523 106.876 124.733 108.158C127.555 109.289 128.966 112.079 128.966 116.516V122.57C128.966 124.692 129.192 126.276 129.645 127.342H123.182ZM116.234 93.659V105.745H118.722C121.286 105.745 122.557 104.355 122.557 101.576V97.7091C122.557 95.0054 121.48 93.6482 119.315 93.6482H116.234V93.659Z" fill="white"/>
<path d="M132.607 97.4626C132.607 90.8811 135.828 87.5957 142.258 87.5957C148.689 87.5957 151.91 90.8811 151.91 97.4626V117.907C151.91 124.489 148.689 127.774 142.258 127.774C135.828 127.774 132.607 124.489 132.607 117.907V97.4626ZM138.952 118.306C138.952 120.902 140.05 122.194 142.258 122.194C144.456 122.194 145.565 120.902 145.565 118.306V97.0856C145.565 94.5111 144.467 93.2185 142.258 93.2185C140.061 93.2185 138.952 94.5111 138.952 97.0856V118.306Z" fill="white"/>
<path d="M162.078 88.0361V118.358C162.078 120.911 163.177 122.193 165.385 122.193C167.583 122.193 168.692 120.911 168.692 118.358V88.0361H174.703V117.971C174.703 124.552 171.536 127.838 165.213 127.838C158.89 127.838 155.734 124.552 155.734 117.971V88.0361H162.078Z" fill="white"/>
<path d="M188.383 88.0361C194.706 88.0361 197.873 91.2784 197.873 97.7737V102.869C197.873 109.343 194.706 112.574 188.383 112.574H185.367V127.353H179.012V88.0361H188.383ZM185.367 93.659V106.984H188.383C190.451 106.984 191.485 105.745 191.485 103.257V97.3644C191.485 94.8977 190.451 93.659 188.383 93.659H185.367Z" fill="white"/>
<path d="M137.25 67.517L137.228 52.8567C137.228 48.9143 135.257 45.2304 131.961 42.9898L68.6231 0L68.6446 14.6603C68.6446 18.6027 70.6159 22.2866 73.912 24.5272L137.25 67.517Z" fill="white"/>
<path d="M97.9975 67.5172L73.8904 51.155C70.5943 48.9145 68.6231 45.2198 68.6231 41.2774V26.6494L92.7086 43.0008C96.0047 45.2414 97.976 48.9253 97.976 52.8677L97.9975 67.5172Z" fill="white"/>
<path d="M137.25 26.2399V40.8678L113.164 24.5272C109.868 22.2866 107.897 18.6027 107.897 14.6603L107.875 0.0107717V0L107.897 0.0107717L131.982 16.3622C135.278 18.6027 137.25 22.2974 137.25 26.2399Z" fill="white"/>
<path d="M12.1995 160.73L14.6745 167H13.2795L11.3895 162.17L10.4595 164.015V167H9.16947V156.32H10.4595V161.735L13.0395 156.32H14.3595L12.1995 160.73ZM17.7538 167H16.4638V156.32H17.7538V167ZM24.3968 157.475H21.5618V160.985H24.0068V162.14H21.5618V165.845H24.3968V167H20.2718V156.32H24.3968V157.475ZM25.1018 154.565H24.1868L25.2068 152.54H26.3168L25.1018 154.565ZM24.3068 155.57H23.3018L22.4018 154.265L21.5168 155.57H20.5118L21.9068 153.545H22.9118L24.3068 155.57ZM31.7901 167H30.6201L27.8601 159.695V167H26.5701V156.32H27.7701L30.5001 163.625V156.32H31.7901V167ZM41.9317 157.475H40.1467V167H38.8567V157.475H37.0567V156.32H41.9317V157.475ZM45.4145 156.32H46.6595L49.1495 167H47.7845L47.2745 164.48H44.7845L44.2745 167H42.9245L45.4145 156.32ZM47.0345 163.325L46.0295 158.405L45.0245 163.325H47.0345ZM46.6595 169.13H45.4445V167.9H46.6595V169.13ZM53.1366 167.12C52.7166 167.12 52.3566 167.05 52.0566 166.91C51.7566 166.76 51.5066 166.57 51.3066 166.34C51.1366 166.15 51.0016 165.94 50.9016 165.71C50.8016 165.47 50.7216 165.175 50.6616 164.825C50.6116 164.465 50.5766 164.035 50.5566 163.535C50.5366 163.025 50.5266 162.4 50.5266 161.66C50.5266 160.92 50.5366 160.3 50.5566 159.8C50.5766 159.29 50.6116 158.86 50.6616 158.51C50.7216 158.15 50.8016 157.855 50.9016 157.625C51.0016 157.395 51.1366 157.18 51.3066 156.98C51.5066 156.75 51.7566 156.565 52.0566 156.425C52.3566 156.275 52.7166 156.2 53.1366 156.2C53.5566 156.2 53.9166 156.275 54.2166 156.425C54.5266 156.565 54.7816 156.75 54.9816 156.98C55.1516 157.17 55.2866 157.385 55.3866 157.625C55.4866 157.855 55.5616 158.15 55.6116 158.51C55.6716 158.86 55.7066 159.29 55.7166 159.8C55.7366 160.3 55.7466 160.92 55.7466 161.66C55.7466 162.4 55.7366 163.025 55.7166 163.535C55.7066 164.045 55.6716 164.475 55.6116 164.825C55.5616 165.175 55.4866 165.47 55.3866 165.71C55.2866 165.94 55.1516 166.15 54.9816 166.34C54.7816 166.57 54.5266 166.76 54.2166 166.91C53.9166 167.05 53.5566 167.12 53.1366 167.12ZM53.1366 165.965C53.3466 165.965 53.5216 165.93 53.6616 165.86C53.8116 165.78 53.9266 165.68 54.0066 165.56C54.1066 165.43 54.1866 165.275 54.2466 165.095C54.3066 164.905 54.3516 164.665 54.3816 164.375C54.4116 164.075 54.4316 163.705 54.4416 163.265C54.4516 162.825 54.4566 162.29 54.4566 161.66C54.4566 161.03 54.4516 160.495 54.4416 160.055C54.4316 159.615 54.4116 159.25 54.3816 158.96C54.3516 158.66 54.3066 158.42 54.2466 158.24C54.1866 158.05 54.1066 157.89 54.0066 157.76C53.9266 157.64 53.8116 157.545 53.6616 157.475C53.5216 157.395 53.3466 157.355 53.1366 157.355C52.9266 157.355 52.7466 157.395 52.5966 157.475C52.4566 157.545 52.3466 157.64 52.2666 157.76C52.1666 157.89 52.0866 158.05 52.0266 158.24C51.9666 158.42 51.9216 158.66 51.8916 158.96C51.8616 159.25 51.8416 159.615 51.8316 160.055C51.8216 160.495 51.8166 161.03 51.8166 161.66C51.8166 162.29 51.8216 162.825 51.8316 163.265C51.8416 163.705 51.8616 164.075 51.8916 164.375C51.9216 164.665 51.9666 164.905 52.0266 165.095C52.0866 165.275 52.1666 165.43 52.2666 165.56C52.3466 165.68 52.4566 165.78 52.5966 165.86C52.7466 165.93 52.9266 165.965 53.1366 165.965ZM66.6352 167H65.4652L62.7052 159.695V167H61.4152V156.32H62.6152L65.3452 163.625V156.32H66.6352V167ZM74.099 167H72.809V162.14H70.439V167H69.149V156.32H70.439V160.985H72.809V156.32H74.099V167ZM83.2641 156.845C83.2641 157.445 83.1341 157.885 82.8741 158.165C82.6241 158.445 82.2091 158.585 81.6291 158.585H81.4791V164.555C81.4791 165.335 81.2491 165.955 80.7891 166.415C80.3391 166.885 79.7441 167.12 79.0041 167.12C78.2741 167.12 77.6741 166.885 77.2041 166.415C76.7541 165.945 76.5291 165.325 76.5291 164.555V156.32H77.8191V164.51C77.8191 164.99 77.9191 165.355 78.1191 165.605C78.3291 165.845 78.6241 165.965 79.0041 165.965C79.3741 165.965 79.6641 165.845 79.8741 165.605C80.0841 165.355 80.1891 164.99 80.1891 164.51V156.32H81.4791V157.7H81.6741C82.0841 157.7 82.2891 157.365 82.2891 156.695V155.9H83.2641V156.845ZM78.2241 154.085C78.4241 154.085 78.5841 154.11 78.7041 154.16C78.8341 154.21 78.9541 154.27 79.0641 154.34C79.1741 154.4 79.2791 154.455 79.3791 154.505C79.4791 154.555 79.5991 154.58 79.7391 154.58C79.8891 154.58 80.0141 154.545 80.1141 154.475C80.2141 154.405 80.3091 154.325 80.3991 154.235L80.9691 154.79C80.7991 154.96 80.6191 155.11 80.4291 155.24C80.2391 155.36 80.0191 155.42 79.7691 155.42C79.5691 155.42 79.4041 155.395 79.2741 155.345C79.1441 155.295 79.0241 155.24 78.9141 155.18C78.8041 155.12 78.6991 155.065 78.5991 155.015C78.4991 154.965 78.3841 154.94 78.2541 154.94C78.1141 154.94 77.9891 154.975 77.8791 155.045C77.7791 155.115 77.6791 155.195 77.5791 155.285L77.0391 154.73C77.2491 154.51 77.4441 154.35 77.6241 154.25C77.8041 154.14 78.0041 154.085 78.2241 154.085ZM89.5729 167H88.4029L85.6429 159.695V167H84.3529V156.32H85.5529L88.2829 163.625V156.32H89.5729V167ZM94.4417 156.2C94.8217 156.2 95.1517 156.26 95.4317 156.38C95.7217 156.5 95.9667 156.66 96.1667 156.86C96.4167 157.11 96.5967 157.415 96.7067 157.775C96.8267 158.135 96.8917 158.53 96.9017 158.96H95.6267C95.6267 158.78 95.6067 158.595 95.5667 158.405C95.5367 158.215 95.4767 158.045 95.3867 157.895C95.3067 157.735 95.1917 157.605 95.0417 157.505C94.8917 157.405 94.6917 157.355 94.4417 157.355C94.2317 157.355 94.0517 157.395 93.9017 157.475C93.7617 157.545 93.6467 157.64 93.5567 157.76C93.4667 157.89 93.3917 158.05 93.3317 158.24C93.2717 158.42 93.2267 158.66 93.1967 158.96C93.1667 159.25 93.1467 159.615 93.1367 160.055C93.1267 160.495 93.1217 161.03 93.1217 161.66C93.1217 162.29 93.1267 162.825 93.1367 163.265C93.1467 163.705 93.1667 164.075 93.1967 164.375C93.2267 164.665 93.2717 164.905 93.3317 165.095C93.3917 165.275 93.4667 165.43 93.5567 165.56C93.6467 165.68 93.7617 165.78 93.9017 165.86C94.0517 165.93 94.2317 165.965 94.4417 165.965C94.8217 165.965 95.1117 165.83 95.3117 165.56C95.5217 165.28 95.6267 164.92 95.6267 164.48V162.335H94.4417V161.27H96.9167V164.435C96.9167 164.885 96.8517 165.28 96.7217 165.62C96.6017 165.95 96.4267 166.23 96.1967 166.46C95.9767 166.68 95.7167 166.845 95.4167 166.955C95.1167 167.065 94.7917 167.12 94.4417 167.12C94.0217 167.12 93.6617 167.05 93.3617 166.91C93.0617 166.76 92.8117 166.57 92.6117 166.34C92.4417 166.15 92.3017 165.94 92.1917 165.71C92.0917 165.47 92.0117 165.175 91.9517 164.825C91.9017 164.475 91.8667 164.045 91.8467 163.535C91.8367 163.025 91.8317 162.4 91.8317 161.66C91.8317 160.92 91.8367 160.3 91.8467 159.8C91.8667 159.29 91.9017 158.86 91.9517 158.51C92.0117 158.15 92.0917 157.855 92.1917 157.625C92.3017 157.385 92.4417 157.17 92.6117 156.98C92.8117 156.75 93.0617 156.565 93.3617 156.425C93.6617 156.275 94.0217 156.2 94.4417 156.2ZM104.943 156.2C105.323 156.2 105.653 156.26 105.933 156.38C106.223 156.5 106.468 156.66 106.668 156.86C106.918 157.11 107.098 157.415 107.208 157.775C107.328 158.135 107.393 158.53 107.403 158.96H106.128C106.128 158.78 106.108 158.595 106.068 158.405C106.038 158.215 105.978 158.045 105.888 157.895C105.808 157.735 105.693 157.605 105.543 157.505C105.393 157.405 105.193 157.355 104.943 157.355C104.733 157.355 104.553 157.395 104.403 157.475C104.263 157.545 104.148 157.64 104.058 157.76C103.968 157.89 103.893 158.05 103.833 158.24C103.773 158.42 103.728 158.66 103.698 158.96C103.668 159.25 103.648 159.615 103.638 160.055C103.628 160.495 103.623 161.03 103.623 161.66C103.623 162.29 103.628 162.825 103.638 163.265C103.648 163.705 103.668 164.075 103.698 164.375C103.728 164.665 103.773 164.905 103.833 165.095C103.893 165.275 103.968 165.43 104.058 165.56C104.148 165.68 104.263 165.78 104.403 165.86C104.553 165.93 104.733 165.965 104.943 165.965C105.323 165.965 105.613 165.83 105.813 165.56C106.023 165.28 106.128 164.92 106.128 164.48V162.335H104.943V161.27H107.418V164.435C107.418 164.885 107.353 165.28 107.223 165.62C107.103 165.95 106.928 166.23 106.698 166.46C106.478 166.68 106.218 166.845 105.918 166.955C105.618 167.065 105.293 167.12 104.943 167.12C104.523 167.12 104.163 167.05 103.863 166.91C103.563 166.76 103.313 166.57 103.113 166.34C102.943 166.15 102.803 165.94 102.693 165.71C102.593 165.47 102.513 165.175 102.453 164.825C102.403 164.475 102.368 164.045 102.348 163.535C102.338 163.025 102.333 162.4 102.333 161.66C102.333 160.92 102.338 160.3 102.348 159.8C102.368 159.29 102.403 158.86 102.453 158.51C102.513 158.15 102.593 157.855 102.693 157.625C102.803 157.385 102.943 157.17 103.113 156.98C103.313 156.75 103.563 156.565 103.863 156.425C104.163 156.275 104.523 156.2 104.943 156.2ZM110.982 167H109.692V156.32H110.982V167ZM115.105 156.32H116.35L118.84 167H117.475L116.965 164.48H114.475L113.965 167H112.615L115.105 156.32ZM116.725 163.325L115.72 158.405L114.715 163.325H116.725ZM116.125 155.57H115.195L116.23 153.545H117.34L116.125 155.57ZM128.1 157.475H126.315V167H125.025V157.475H123.225V156.32H128.1V157.475ZM132.393 156.32C132.793 156.32 133.148 156.37 133.458 156.47C133.778 156.57 134.043 156.735 134.253 156.965C134.473 157.195 134.638 157.51 134.748 157.91C134.858 158.3 134.913 158.785 134.913 159.365C134.913 160.115 134.813 160.715 134.613 161.165C134.423 161.605 134.093 161.935 133.623 162.155L135.258 167H133.893L132.423 162.41H131.268V167H129.978V156.32H132.393ZM131.268 157.475V161.27H132.408C132.658 161.27 132.858 161.225 133.008 161.135C133.168 161.045 133.293 160.915 133.383 160.745C133.473 160.575 133.533 160.375 133.563 160.145C133.603 159.915 133.623 159.655 133.623 159.365C133.623 159.085 133.603 158.83 133.563 158.6C133.533 158.36 133.473 158.16 133.383 158C133.293 157.83 133.168 157.7 133.008 157.61C132.858 157.52 132.658 157.475 132.408 157.475H131.268ZM138.694 167H137.404V156.32H138.694V167ZM138.679 169.13H137.464V167.9H138.679V169.13ZM146.905 156.32C147.385 156.32 147.775 156.37 148.075 156.47C148.375 156.57 148.635 156.735 148.855 156.965C148.975 157.085 149.075 157.21 149.155 157.34C149.235 157.47 149.3 157.62 149.35 157.79C149.4 157.96 149.435 158.155 149.455 158.375C149.475 158.585 149.485 158.835 149.485 159.125C149.485 159.505 149.445 159.855 149.365 160.175C149.285 160.485 149.115 160.77 148.855 161.03C148.685 161.2 148.485 161.335 148.255 161.435C148.375 161.475 148.49 161.53 148.6 161.6C148.72 161.67 148.825 161.745 148.915 161.825C149.195 162.095 149.37 162.41 149.44 162.77C149.52 163.13 149.56 163.54 149.56 164C149.56 164.32 149.545 164.6 149.515 164.84C149.495 165.08 149.455 165.295 149.395 165.485C149.335 165.665 149.26 165.825 149.17 165.965C149.09 166.105 148.99 166.235 148.87 166.355C148.65 166.585 148.385 166.75 148.075 166.85C147.775 166.95 147.385 167 146.905 167H144.61V156.32H146.905ZM145.9 162.005V165.845H146.83C147.07 165.845 147.28 165.815 147.46 165.755C147.64 165.695 147.79 165.59 147.91 165.44C148.03 165.29 148.12 165.095 148.18 164.855C148.24 164.605 148.27 164.295 148.27 163.925C148.27 163.235 148.15 162.745 147.91 162.455C147.67 162.155 147.31 162.005 146.83 162.005H145.9ZM145.9 157.475V160.895H146.845C147.305 160.895 147.645 160.765 147.865 160.505C148.085 160.235 148.195 159.795 148.195 159.185C148.195 158.535 148.085 158.09 147.865 157.85C147.655 157.6 147.315 157.475 146.845 157.475H145.9ZM156 157.475H153.165V160.985H155.61V162.14H153.165V165.845H156V167H151.875V156.32H156V157.475ZM157.005 154.565H156.09L154.695 152.54H155.805L157.005 154.565ZM155.91 155.57H154.905L154.005 154.265L153.12 155.57H152.115L153.51 153.545H154.515L155.91 155.57ZM163.393 167H162.223L159.463 159.695V167H158.173V156.32H159.373L162.103 163.625V156.32H163.393V167ZM169.815 156.32L171.285 164.915L172.755 156.32H174.165L171.945 167H170.625L168.405 156.32H169.815ZM182.424 156.845C182.424 157.445 182.294 157.885 182.034 158.165C181.784 158.445 181.369 158.585 180.789 158.585H180.639V164.555C180.639 165.335 180.409 165.955 179.949 166.415C179.499 166.885 178.904 167.12 178.164 167.12C177.434 167.12 176.834 166.885 176.364 166.415C175.914 165.945 175.689 165.325 175.689 164.555V156.32H176.979V164.51C176.979 164.99 177.079 165.355 177.279 165.605C177.489 165.845 177.784 165.965 178.164 165.965C178.534 165.965 178.824 165.845 179.034 165.605C179.244 165.355 179.349 164.99 179.349 164.51V156.32H180.639V157.7H180.834C181.244 157.7 181.449 157.365 181.449 156.695V155.9H182.424V156.845ZM177.384 154.085C177.584 154.085 177.744 154.11 177.864 154.16C177.994 154.21 178.114 154.27 178.224 154.34C178.334 154.4 178.439 154.455 178.539 154.505C178.639 154.555 178.759 154.58 178.899 154.58C179.049 154.58 179.174 154.545 179.274 154.475C179.374 154.405 179.469 154.325 179.559 154.235L180.129 154.79C179.959 154.96 179.779 155.11 179.589 155.24C179.399 155.36 179.179 155.42 178.929 155.42C178.729 155.42 178.564 155.395 178.434 155.345C178.304 155.295 178.184 155.24 178.074 155.18C177.964 155.12 177.859 155.065 177.759 155.015C177.659 154.965 177.544 154.94 177.414 154.94C177.274 154.94 177.149 154.975 177.039 155.045C176.939 155.115 176.839 155.195 176.739 155.285L176.199 154.73C176.409 154.51 176.604 154.35 176.784 154.25C176.964 154.14 177.164 154.085 177.384 154.085ZM188.733 167H187.563L184.803 159.695V167H183.513V156.32H184.713L187.443 163.625V156.32H188.733V167ZM193.602 156.2C193.982 156.2 194.312 156.26 194.592 156.38C194.882 156.5 195.127 156.66 195.327 156.86C195.577 157.11 195.757 157.415 195.867 157.775C195.987 158.135 196.052 158.53 196.062 158.96H194.787C194.787 158.78 194.767 158.595 194.727 158.405C194.697 158.215 194.637 158.045 194.547 157.895C194.467 157.735 194.352 157.605 194.202 157.505C194.052 157.405 193.852 157.355 193.602 157.355C193.392 157.355 193.212 157.395 193.062 157.475C192.922 157.545 192.807 157.64 192.717 157.76C192.627 157.89 192.552 158.05 192.492 158.24C192.432 158.42 192.387 158.66 192.357 158.96C192.327 159.25 192.307 159.615 192.297 160.055C192.287 160.495 192.282 161.03 192.282 161.66C192.282 162.29 192.287 162.825 192.297 163.265C192.307 163.705 192.327 164.075 192.357 164.375C192.387 164.665 192.432 164.905 192.492 165.095C192.552 165.275 192.627 165.43 192.717 165.56C192.807 165.68 192.922 165.78 193.062 165.86C193.212 165.93 193.392 165.965 193.602 165.965C193.982 165.965 194.272 165.83 194.472 165.56C194.682 165.28 194.787 164.92 194.787 164.48V162.335H193.602V161.27H196.077V164.435C196.077 164.885 196.012 165.28 195.882 165.62C195.762 165.95 195.587 166.23 195.357 166.46C195.137 166.68 194.877 166.845 194.577 166.955C194.277 167.065 193.952 167.12 193.602 167.12C193.182 167.12 192.822 167.05 192.522 166.91C192.222 166.76 191.972 166.57 191.772 166.34C191.602 166.15 191.462 165.94 191.352 165.71C191.252 165.47 191.172 165.175 191.112 164.825C191.062 164.475 191.027 164.045 191.007 163.535C190.997 163.025 190.992 162.4 190.992 161.66C190.992 160.92 190.997 160.3 191.007 159.8C191.027 159.29 191.062 158.86 191.112 158.51C191.172 158.15 191.252 157.855 191.352 157.625C191.462 157.385 191.602 157.17 191.772 156.98C191.972 156.75 192.222 156.565 192.522 156.425C192.822 156.275 193.182 156.2 193.602 156.2Z" fill="white"/>
</svg>
